<?xml version="1.0" encoding="utf-8"?>
<!-- Generator: Adobe Illustrator 18.1.1, SVG Export Plug-In . SVG Version: 6.00 Build 0)  -->
<!DOCTYPE svg PUBLIC "-//W3C//DTD SVG 1.1//EN" "http://www.w3.org/Graphics/SVG/1.1/DTD/svg11.dtd">
<svg version="1.1" id="Layer_1" xmlns="http://www.w3.org/2000/svg" xmlns:xlink="http://www.w3.org/1999/xlink" x="0px" y="0px"
	 viewBox="0 0 49.8 70.1" enable-background="new 0 0 49.8 70.1" xml:space="preserve">
<text transform="matrix(1 0 0 1 14.8103 60.8243)" fill="#CBC6BA" font-family="'Futura-CondensedMedium'" font-size="10">Other</text>
<g>
	<path fill="#CBC6BA" stroke="#CBC6BA" stroke-miterlimit="10" d="M12.1,34.6c7.6,0,15.1,0,22.7,0c0-2.7,0-5.4,0-8.1
		c0.8,0.4,1.7,0.8,2.5,1.2c0,1.1,0,2.4,0,3.6c0,3.8,0,7.7,0,11.5c0,1.1-0.5,1.5-1.5,1.5c-8.2,0-16.4,0-24.6,0c-1,0-1.5-0.5-1.5-1.5
		c0-4.9,0-9.8,0-14.8c0-0.4,0.1-0.5,0.5-0.6c0.7-0.2,1.3-0.6,2-0.9C12.1,29.1,12.1,31.8,12.1,34.6z"/>
	<path fill="#CBC6BA" stroke="#CBC6BA" stroke-miterlimit="10" d="M34.5,21.8c-0.4,1.9-1.7,3.1-3.4,3.2c-1.8,0.1-3.1-0.9-3.9-3.1
		c-0.2,1-0.6,1.8-1.4,2.3c-0.7,0.6-1.6,0.9-2.5,0.8c-1.7-0.1-2.9-1.1-3.5-3.2c-0.3,1.3-0.9,2.2-1.9,2.8c-0.7,0.4-1.5,0.5-2.3,0.4
		c-1.5-0.2-2.7-1.4-3.1-3.2c-0.1,0.2-0.1,0.4-0.1,0.5c-0.4,1.6-2,2.8-3.6,2.7c-1.8-0.1-3.2-1.3-3.5-3c-0.1-0.4,0-0.8,0.3-1.1
		c1.5-1.6,3-3.2,4.4-4.8c0.1-0.1,0.4-0.3,0.6-0.3c8.7,0,17.3,0,26,0c0.2,0,0.4,0.1,0.5,0.2c1.5,1.6,3.1,3.3,4.6,4.9
		c0.1,0.2,0.2,0.4,0.2,0.7c-0.1,1.7-1.6,3.1-3.4,3.3c-1.7,0.2-3.4-1-3.8-2.7C34.6,22.1,34.6,22,34.5,21.8z"/>
	<path fill="#CBC6BA" stroke="#CBC6BA" stroke-miterlimit="10" d="M9.6,14.4c0-0.4,0-0.9,0-1.3c0-0.8,0.5-1.3,1.4-1.3
		c2.1,0,4.2,0,6.3,0c6.2,0,12.3,0,18.5,0c1.1,0,1.6,0.5,1.6,1.5c0,0.4,0,0.7,0,1.1C28.1,14.4,18.9,14.4,9.6,14.4z"/>
</g>
</svg>
