<?xml version="1.0" encoding="utf-8"?>
<!-- Generator: Adobe Illustrator 18.1.1, SVG Export Plug-In . SVG Version: 6.00 Build 0)  -->
<!DOCTYPE svg PUBLIC "-//W3C//DTD SVG 1.1//EN" "http://www.w3.org/Graphics/SVG/1.1/DTD/svg11.dtd">
<svg version="1.1" id="Layer_1" xmlns="http://www.w3.org/2000/svg" xmlns:xlink="http://www.w3.org/1999/xlink" x="0px" y="0px"
	 viewBox="0 0 41.8 70.1" enable-background="new 0 0 41.8 70.1" xml:space="preserve">
<text transform="matrix(1 0 0 1 4.4291 60.8243)" fill="#34498B" font-family="'Futura-CondensedMedium'" font-size="10">Apartment</text>
<g>
	<path fill="#34498B" d="M7,45.7c0-5.1,0-10.1,0-15.3c-0.5,0.3-0.9,0.6-1.3,0.9c-0.8-1.2-1.7-2.4-2.6-3.7c6-4.6,11.9-9.2,17.9-13.8
		c1.8,1.4,3.5,2.7,5.4,4.1c0-1.4,0-2.7,0-4c1.7,0,3.2,0,4.9,0c0,2.3,0,4.5,0,6.7c0,0.9,0.2,1.4,0.9,2c2.2,1.6,4.3,3.3,6.5,5
		c-0.9,1.2-1.7,2.4-2.6,3.7c-0.4-0.3-0.8-0.5-1.3-0.9c0,5.2,0,10.2,0,15.3C25.6,45.7,16.4,45.7,7,45.7z M12.1,30.9
		c0,4.5,0,8.9,0,13.3c2.2,0,4.4,0,6.5,0c0-4.5,0-8.9,0-13.3C16.5,30.9,14.3,30.9,12.1,30.9z M22.2,38.8c2.8,0,5.5,0,8.1,0
		c0-2.6,0-5.1,0-7.6c-2.8,0-5.5,0-8.1,0C22.2,33.8,22.2,36.2,22.2,38.8z"/>
</g>
</svg>
