<?xml version="1.0" encoding="utf-8"?>
<!-- Generator: Adobe Illustrator 18.1.1, SVG Export Plug-In . SVG Version: 6.00 Build 0)  -->
<!DOCTYPE svg PUBLIC "-//W3C//DTD SVG 1.1//EN" "http://www.w3.org/Graphics/SVG/1.1/DTD/svg11.dtd">
<svg version="1.1" id="Layer_1" xmlns="http://www.w3.org/2000/svg" xmlns:xlink="http://www.w3.org/1999/xlink" x="0px" y="0px"
	 viewBox="0 0 41.8 70.1" enable-background="new 0 0 41.8 70.1" xml:space="preserve">
<text transform="matrix(1 0 0 1 13.5199 60.8243)" fill="#0071BA" font-family="'Futura-CondensedMedium'" font-size="10">Hotel</text>
<g>
	<path fill="#0071BA" d="M7.7,40.4c0,1.8,0,3.6,0,5.3c-1.3,0-2.5,0-3.8,0c0-0.1,0-0.3,0-0.4c0-6.7,0-13.4,0-20.1
		c0-0.3,0-0.5,0.1-0.8c0.2-0.9,0.9-1.5,1.8-1.4c0.9,0,1.6,0.6,1.7,1.5c0,0.2,0.1,0.5,0.1,0.7c0,3.4,0,6.9,0,10.3c0,0.1,0,0.3,0,0.5
		c9.6,0,19.1,0,28.7,0c0-0.2,0-0.3,0-0.5c0-1.9,0-3.8,0-5.7c0-0.4,0.1-0.8,0.2-1.2c0.3-0.8,1.1-1.2,1.9-1.1c0.9,0.1,1.5,0.8,1.6,1.7
		c0,0.2,0,0.3,0,0.5c0,5.2,0,10.4,0,15.6c0,0.1,0,0.2,0,0.4c-1.2,0-2.4,0-3.7,0c0-1.8,0-3.5,0-5.3C26.8,40.4,17.3,40.4,7.7,40.4z"/>
	<path fill="#0071BA" d="M18.9,35.3c0-2.6,0-5.1,0-7.6c0.1,0,0.2,0,0.3,0c4.3,0,8.6,0,12.9,0c0.8,0,1.6,0.1,2.3,0.7
		c0.6,0.5,1,1.1,1,1.8c0.1,1.7,0,3.5,0,5.2C30,35.3,24.5,35.3,18.9,35.3z"/>
	<path fill="#0071BA" d="M21.6,7.2c0.9,0.2,1.8,0.4,2.8,0.6c4.7,1,9.3,1.9,14,2.9c1.4,0.3,2.7,0.6,4.1,0.8c0.7,0.2,1,0.7,0.9,1.4
		c0,0.1,0,0.2-0.1,0.4c-0.2,0.8-0.7,1.1-1.5,0.9c-3.6-0.7-7.2-1.5-10.8-2.2c-3-0.6-6.1-1.3-9.1-1.9c-0.2,0-0.5,0-0.7,0
		c-6.5,1.6-13,3.2-19.6,4.8c-0.9,0.2-1.4-0.1-1.6-1c0-0.2-0.1-0.3-0.1-0.5c-0.1-0.6,0.3-1.1,1-1.3c2.5-0.6,5-1.2,7.5-1.8
		c4.1-1,8.1-2,12.2-3C21,7.2,21.3,7.2,21.6,7.2z"/>
	<path fill="#0071BA" d="M15.2,32.2c0-0.9,0-1.8,0-2.6c0-0.3,0-0.5,0.1-0.8c0.2-0.8,0.9-1.3,1.6-1.3c0.8,0.1,1.5,0.6,1.5,1.5
		c0,1.6,0,3.3,0,4.9c0,0.7-0.6,1.3-1.3,1.4c-0.2,0-0.3,0-0.5,0c-2.1,0-4.3,0-6.4,0c-0.2,0-0.4,0-0.6-0.1c-0.8-0.1-1.4-0.8-1.4-1.5
		c0-0.8,0.6-1.4,1.5-1.5c0.3,0,0.5,0,0.8,0C12,32.2,13.6,32.2,15.2,32.2z"/>
	<path fill="#0071BA" d="M11.8,25.3c1.9,0.1,3.2,1.7,3.2,3.4c-0.1,2.1-1.9,3.3-3.6,3.2c-2-0.1-3.2-1.8-3.2-3.4
		C8.4,26.4,10.1,25.1,11.8,25.3z"/>
</g>
</svg>
