<?xml version="1.0" encoding="utf-8"?>
<!-- Generator: Adobe Illustrator 18.1.1, SVG Export Plug-In . SVG Version: 6.00 Build 0)  -->
<!DOCTYPE svg PUBLIC "-//W3C//DTD SVG 1.1//EN" "http://www.w3.org/Graphics/SVG/1.1/DTD/svg11.dtd">
<svg version="1.1" id="Layer_1" xmlns="http://www.w3.org/2000/svg" xmlns:xlink="http://www.w3.org/1999/xlink" x="0px" y="0px"
	 viewBox="0 0 41.8 70.1" enable-background="new 0 0 41.8 70.1" xml:space="preserve">
<g>
	<g>
		<path fill="#9E2214" d="M20.8,34.6c-2.7,0-5.4,0-8.1,0c-1.7,0-3-1.4-3-3.2c0-1.8,1.4-3.1,3.1-3c0.7,0,1.3,0.3,1.8,0.8
			c0.1,0.1,0.3,0.2,0.4,0.3c1.7,0.3,3.4,0.7,5.1,0.9c1.5,0.2,3-0.2,4.4-0.5c0.4-0.1,0.8-0.2,1.3-0.2c0.6-0.1,1.1-0.3,1.6-0.7
			c0.8-0.7,1.8-0.7,2.8-0.3c1.1,0.5,1.6,1.4,1.7,2.5c0.2,1.8-1.2,3.5-3.2,3.4C26.1,34.5,23.4,34.6,20.8,34.6
			C20.8,34.6,20.8,34.6,20.8,34.6z"/>
		<path fill="#9E2214" d="M23.2,17.5c-0.2,2.6-0.4,5.1-0.6,7.6c-1.2,0-2.3,0-3.5,0c-0.2-2.5-0.4-5.1-0.6-7.6c-0.6,0-1.1,0-1.7,0
			c-0.7,0-1.3,0-2-0.1c-1.2-0.2-2-1.2-2-2.5c0-1.2,0.9-2.2,2.1-2.3c1-0.1,2.1-0.1,3.2-0.1c2.6,0,5.3,0,7.9,0c0.4,0,0.7,0,1.1,0.1
			c1.2,0.3,1.9,1.4,1.8,2.6c-0.1,1.2-1.1,2.1-2.4,2.2c-0.9,0.1-1.9,0-2.8,0C23.5,17.5,23.4,17.5,23.2,17.5z"/>
		<path fill="#9E2214" d="M17.9,25.8c2,0,3.9,0,5.9,0c0-1.5,0-3,0-4.4c0-0.1-0.1-0.2-0.2-0.4c-0.4-0.7-0.2-1.5,0.4-2
			c0.6-0.5,1.4-0.5,2,0c0.6,0.5,0.8,1.3,0.4,2c-0.1,0.2-0.1,0.4-0.1,0.6c0,2.2,0,4.3,0,6.5c0,0.3-0.1,0.5-0.4,0.6
			c-1.2,0.4-2.4,0.8-3.6,1.2c-1,0.3-2,0.3-3,0c-1.2-0.4-2.4-0.8-3.6-1.2c-0.3-0.1-0.4-0.3-0.4-0.5c0-2.2,0-4.3,0-6.5
			c0-0.2-0.1-0.5-0.2-0.7c-0.3-0.7-0.1-1.5,0.5-1.9c0.6-0.4,1.4-0.4,2,0c0.6,0.5,0.8,1.3,0.4,1.9c-0.1,0.2-0.2,0.5-0.2,0.7
			c0,1.2,0,2.4,0,3.7C17.9,25.5,17.9,25.6,17.9,25.8z"/>
		<path fill="#9E2214" d="M19.2,35.3c0.4,0,0.7,0,1,0c0.7,0,1.5,0,2.3,0c-0.1,0.9-0.3,1.7-0.4,2.6C22,38.9,21.9,40,22,41.1
			c0,0.9,0.2,1.1,1.1,1.2c1.9,0.3,3.8,0.5,5.7,0.7c0.3,0,0.6,0.1,1,0.1c0.7,0.1,1.2,0.6,1.2,1.3c0,0.7-0.5,1.2-1.2,1.3
			c-0.7,0.1-1.3-0.4-1.4-1.1c0-0.1,0-0.2-0.1-0.4c-2.1,0-4.1,0-6.1,0c-0.1,1-0.6,1.5-1.4,1.5c-0.7,0-1.2-0.5-1.3-1.5c-2,0-4,0-6,0
			c0,0.2-0.1,0.4-0.1,0.6c-0.2,0.6-0.8,0.9-1.4,0.8c-0.7-0.1-1.1-0.7-1.1-1.3c0-0.7,0.5-1.2,1.1-1.3c1.3-0.1,2.5-0.2,3.8-0.4
			c1-0.1,2.1-0.3,3.1-0.4c0.5-0.1,0.9-0.4,0.9-0.9c0-1.2,0-2.3-0.1-3.5C19.5,37.1,19.3,36.2,19.2,35.3z"/>
		<path fill="#9E2214" d="M14.3,24.4c0,0.3,0,0.5,0,0.8C13.6,25.1,13,25,12.3,25c-0.3,0-0.6,0-1,0c-0.5,0.1-0.7,0.3-0.5,0.8
			c0.2,0.6,0.6,1.1,0.9,1.7c0.1,0.1,0.2,0.3,0.3,0.4c-0.2,0.1-0.3,0.3-0.5,0.4c-0.1,0-0.1,0-0.1,0c-0.7-1.1-1.4-2.2-2.1-3.4
			c-0.4-0.8-0.1-1.2,0.8-1.2c1,0,2.1,0.3,3.1,0.4C13.6,24.2,13.9,24.3,14.3,24.4z"/>
		<path fill="#9E2214" d="M30.5,28.4c-0.3-0.2-0.4-0.3-0.6-0.5c0.3-0.4,0.5-0.8,0.7-1.3c0.1-0.3,0.3-0.6,0.4-0.8
			c0.2-0.5,0-0.8-0.5-0.8c-0.9,0-1.9,0.1-2.8,0.1c0-0.2,0-0.5,0-0.9c1.2-0.2,2.5-0.5,3.7-0.6c1.2-0.1,1.6,0.4,1,1.5
			C31.8,26.2,31.1,27.3,30.5,28.4z"/>
	</g>
	<text transform="matrix(1 0 0 1 11.6089 60.8243)" fill="#9E2214" font-family="'Futura-CondensedMedium'" font-size="10">Office</text>
</g>
</svg>
