<?xml version="1.0" encoding="utf-8"?>
<!-- Generator: Adobe Illustrator 18.1.1, SVG Export Plug-In . SVG Version: 6.00 Build 0)  -->
<!DOCTYPE svg PUBLIC "-//W3C//DTD SVG 1.1//EN" "http://www.w3.org/Graphics/SVG/1.1/DTD/svg11.dtd">
<svg version="1.1" id="Layer_1" xmlns="http://www.w3.org/2000/svg" xmlns:xlink="http://www.w3.org/1999/xlink" x="0px" y="0px"
	 viewBox="0 0 95 113.7" enable-background="new 0 0 95 113.7" xml:space="preserve">
<polygon fill="#CBC6BA" stroke="#CBC6BA" stroke-miterlimit="10" points="64.5,94.7 62.5,17.7 18.5,17.7 17,94.7 41,112.6 "/>
<polygon fill="#CBC6BA" stroke="#CBC6BA" stroke-miterlimit="10" points="63.5,0 76.5,9.9 76.5,82.5 63.5,94.4 "/>
<rect x="17" y="0" fill="#CBC6BA" stroke="#CBC6BA" stroke-miterlimit="10" width="47.2" height="94.4"/>
<g>
	<g>
		<rect x="31.5" y="4.7" fill="#FCF4E3" width="8.9" height="13"/>
		<rect x="42.3" y="4.7" fill="#FCF4E3" width="8.9" height="13"/>
		<rect x="53" y="4.7" fill="#FCF4E3" width="8.9" height="13"/>
		<rect x="20.8" y="4.7" fill="#FCF4E3" width="8.9" height="13"/>
	</g>
	<g>
		<rect x="31.5" y="22" fill="#FCF4E3" width="8.9" height="13"/>
		<rect x="42.3" y="22" fill="#FCF4E3" width="8.9" height="13"/>
		<rect x="53" y="22" fill="#FCF4E3" width="8.9" height="13"/>
		<rect x="20.8" y="22" fill="#FCF4E3" width="8.9" height="13"/>
	</g>
	<g>
		<rect x="31.5" y="39.3" fill="#FCF4E3" width="8.9" height="13"/>
		<rect x="42.3" y="39.3" fill="#FCF4E3" width="8.9" height="13"/>
		<rect x="53" y="39.3" fill="#FCF4E3" width="8.9" height="13"/>
		<rect x="20.8" y="39.3" fill="#FCF4E3" width="8.9" height="13"/>
	</g>
	<g>
		<rect x="31.5" y="56.6" fill="#FCF4E3" width="8.9" height="13"/>
		<rect x="42.3" y="56.6" fill="#FCF4E3" width="8.9" height="13"/>
		<rect x="53" y="56.6" fill="#FCF4E3" width="8.9" height="13"/>
		<rect x="20.8" y="56.6" fill="#FCF4E3" width="8.9" height="13"/>
	</g>
	<g>
		<rect x="31.5" y="73.9" fill="#FCF4E3" width="8.9" height="13"/>
		<rect x="42.3" y="73.9" fill="#FCF4E3" width="8.9" height="13"/>
		<rect x="53" y="73.9" fill="#FCF4E3" width="8.9" height="13"/>
		<rect x="20.8" y="73.9" fill="#FCF4E3" width="8.9" height="13"/>
	</g>
</g>
</svg>
