<?xml version="1.0" encoding="utf-8"?>
<!-- Generator: Adobe Illustrator 18.1.1, SVG Export Plug-In . SVG Version: 6.00 Build 0)  -->
<!DOCTYPE svg PUBLIC "-//W3C//DTD SVG 1.1//EN" "http://www.w3.org/Graphics/SVG/1.1/DTD/svg11.dtd">
<svg version="1.1" id="Layer_1" xmlns="http://www.w3.org/2000/svg" xmlns:xlink="http://www.w3.org/1999/xlink" x="0px" y="0px"
	 viewBox="0 0 95 163.7" enable-background="new 0 0 95 163.7" xml:space="preserve">
<polygon fill="#34498B" stroke="#1B1464" stroke-miterlimit="10" points="64.5,147.2 62.5,69.7 18.5,69.7 17,147.2 41,165.1 "/>
<polygon fill="#34498B" stroke="#1B1464" stroke-miterlimit="10" points="64.5,0 77.5,9.9 77.5,135.5 64.5,147.4 "/>
<rect x="17" y="0" fill="#34498B" stroke="#1B1464" stroke-miterlimit="10" width="47.2" height="147.4"/>
<g>
	<g>
		<rect x="31.5" y="5.7" fill="#738EA8" width="8.9" height="13"/>
		<rect x="42.3" y="5.7" fill="#738EA8" width="8.9" height="13"/>
		<rect x="53" y="5.7" fill="#738EA8" width="8.9" height="13"/>
		<rect x="20.8" y="5.7" fill="#738EA8" width="8.9" height="13"/>
	</g>
	<g>
		<rect x="31.5" y="23.1" fill="#738EA8" width="8.9" height="13"/>
		<rect x="42.3" y="23.1" fill="#738EA8" width="8.9" height="13"/>
		<rect x="53" y="23.1" fill="#738EA8" width="8.9" height="13"/>
		<rect x="20.8" y="23.1" fill="#738EA8" width="8.9" height="13"/>
	</g>
	<g>
		<rect x="31.5" y="40.4" fill="#738EA8" width="8.9" height="13"/>
		<rect x="42.3" y="40.4" fill="#738EA8" width="8.9" height="13"/>
		<rect x="53" y="40.4" fill="#738EA8" width="8.9" height="13"/>
		<rect x="20.8" y="40.4" fill="#738EA8" width="8.9" height="13"/>
	</g>
	<g>
		<rect x="31.5" y="57.7" fill="#738EA8" width="8.9" height="13"/>
		<rect x="42.3" y="57.7" fill="#738EA8" width="8.9" height="13"/>
		<rect x="53" y="57.7" fill="#738EA8" width="8.9" height="13"/>
		<rect x="20.8" y="57.7" fill="#738EA8" width="8.9" height="13"/>
	</g>
	<g>
		<rect x="31.5" y="75" fill="#738EA8" width="8.9" height="13"/>
		<rect x="42.3" y="75" fill="#738EA8" width="8.9" height="13"/>
		<rect x="53" y="75" fill="#738EA8" width="8.9" height="13"/>
		<rect x="20.8" y="75" fill="#738EA8" width="8.9" height="13"/>
	</g>
	<g>
		<rect x="31.5" y="92.3" fill="#738EA8" width="8.9" height="13"/>
		<rect x="42.3" y="92.3" fill="#738EA8" width="8.9" height="13"/>
		<rect x="53" y="92.3" fill="#738EA8" width="8.9" height="13"/>
		<rect x="20.8" y="92.3" fill="#738EA8" width="8.9" height="13"/>
	</g>
	<g>
		<rect x="31.5" y="109.6" fill="#738EA8" width="8.9" height="13"/>
		<rect x="42.3" y="109.6" fill="#738EA8" width="8.9" height="13"/>
		<rect x="53" y="109.6" fill="#738EA8" width="8.9" height="13"/>
		<rect x="20.8" y="109.6" fill="#738EA8" width="8.9" height="13"/>
	</g>
	<g>
		<rect x="31.5" y="126.9" fill="#738EA8" width="8.9" height="13"/>
		<rect x="42.3" y="126.9" fill="#738EA8" width="8.9" height="13"/>
		<rect x="53" y="126.9" fill="#738EA8" width="8.9" height="13"/>
		<rect x="20.8" y="126.9" fill="#738EA8" width="8.9" height="13"/>
	</g>
</g>
</svg>
