<?xml version="1.0" encoding="utf-8"?>
<!-- Generator: Adobe Illustrator 18.1.1, SVG Export Plug-In . SVG Version: 6.00 Build 0)  -->
<!DOCTYPE svg PUBLIC "-//W3C//DTD SVG 1.1//EN" "http://www.w3.org/Graphics/SVG/1.1/DTD/svg11.dtd">
<svg version="1.1" id="Layer_1" xmlns="http://www.w3.org/2000/svg" xmlns:xlink="http://www.w3.org/1999/xlink" x="0px" y="0px"
	 viewBox="0 0 95 94.6" enable-background="new 0 0 95 94.6" xml:space="preserve">
<polygon fill="#34498B" stroke="#1B1464" stroke-miterlimit="10" points="64.5,1 77.5,10.9 77.5,65.5 64.5,77.4 "/>
<polygon fill="#34498B" stroke="#1B1464" stroke-miterlimit="10" points="64.5,77.2 62.5,-0.3 18.5,-0.3 17,77.2 41,95.1 "/>
<rect x="17" y="0" fill="#34498B" stroke="#1B1464" stroke-miterlimit="10" width="47.2" height="77.4"/>
<g>
	<g>
		<rect x="31.5" y="5" fill="#738EA8" width="8.9" height="13"/>
		<rect x="42.3" y="5" fill="#738EA8" width="8.9" height="13"/>
		<rect x="53" y="5" fill="#738EA8" width="8.9" height="13"/>
		<rect x="20.8" y="5" fill="#738EA8" width="8.9" height="13"/>
	</g>
	<g>
		<rect x="31.5" y="22.3" fill="#738EA8" width="8.9" height="13"/>
		<rect x="42.3" y="22.3" fill="#738EA8" width="8.9" height="13"/>
		<rect x="53" y="22.3" fill="#738EA8" width="8.9" height="13"/>
		<rect x="20.8" y="22.3" fill="#738EA8" width="8.9" height="13"/>
	</g>
	<g>
		<rect x="31.5" y="39.6" fill="#738EA8" width="8.9" height="13"/>
		<rect x="42.3" y="39.6" fill="#738EA8" width="8.9" height="13"/>
		<rect x="53" y="39.6" fill="#738EA8" width="8.9" height="13"/>
		<rect x="20.8" y="39.6" fill="#738EA8" width="8.9" height="13"/>
	</g>
	<g>
		<rect x="31.5" y="56.9" fill="#738EA8" width="8.9" height="13"/>
		<rect x="42.3" y="56.9" fill="#738EA8" width="8.9" height="13"/>
		<rect x="53" y="56.9" fill="#738EA8" width="8.9" height="13"/>
		<rect x="20.8" y="56.9" fill="#738EA8" width="8.9" height="13"/>
	</g>
</g>
</svg>
