<?xml version="1.0" encoding="utf-8"?>
<!-- Generator: Adobe Illustrator 18.1.1, SVG Export Plug-In . SVG Version: 6.00 Build 0)  -->
<!DOCTYPE svg PUBLIC "-//W3C//DTD SVG 1.1//EN" "http://www.w3.org/Graphics/SVG/1.1/DTD/svg11.dtd">
<svg version="1.1" id="Layer_1" xmlns="http://www.w3.org/2000/svg" xmlns:xlink="http://www.w3.org/1999/xlink" x="0px" y="0px"
	 viewBox="0 0 49.8 70.1" enable-background="new 0 0 49.8 70.1" xml:space="preserve">
<text transform="matrix(1 0 0 1 1.0778 60.8243)" fill="#4D4D4D" font-family="'Futura-CondensedMedium'" font-size="10">Manufacturing</text>
<g>
	<path fill="#4D4D4D" d="M16.9,28.1c2.2-1.5,4.4-2.9,6.5-4.3c0.3-0.2,0.7-0.7,1-0.5c0.3,0.2,0.1,0.8,0.1,1.1c0,0.9,0,1.8,0,2.8
		c0,0.3-0.2,0.7,0.2,0.8c0.2,0.1,0.5-0.2,0.7-0.3c2.1-1.4,4.2-2.8,6.4-4.2c0.2-0.1,0.3-0.2,0.6-0.4c0,1.7,0,3.3,0,5.2
		c2.8-1.9,5.4-3.6,8-5.3c0,0.4,0,0.7,0,0.9c0,6,0,12,0,18c0,0.8-0.1,1.1-1,1.1c-10.3,0-20.6,0-30.9,0c-0.9,0-1-0.2-1-1.1
		c0.9-8.5,1.8-17,2.6-25.5c0.1-0.8,0.3-1,1.1-1c1.4,0.1,2.9,0.1,4.3,0c0.7,0,0.9,0.2,0.9,0.9c0,3.6,0,7.2,0,10.8
		C16.6,27.4,16.6,27.7,16.9,28.1z M34.7,34.6c0-0.3,0-0.7,0-1c0-1.9,0.4-1.7-1.8-1.7c-0.7,0-0.9,0.2-0.9,0.9c0,1,0.1,2.1,0,3.1
		c-0.1,1,0.2,1.4,1.3,1.4c1.1,0,1.6-0.3,1.4-1.4C34.6,35.4,34.7,35,34.7,34.6z M26.7,34.6c0-0.3,0-0.7,0-1c-0.1-1.9,0.4-1.6-1.8-1.7
		c-0.7,0-0.9,0.2-0.9,0.9c0.1,1,0.1,2.1,0,3.1c-0.1,1.1,0.2,1.4,1.3,1.4c1.1,0,1.5-0.3,1.4-1.4C26.7,35.4,26.7,35,26.7,34.6z
		 M18.7,34.6c0-0.3,0-0.6,0-0.9c0-2,0-2-2-1.8c-0.5,0-0.7,0.2-0.6,0.7c0,1.3,0,2.6,0,4c0,0.4,0.1,0.6,0.5,0.7c1.8,0.3,2.1,0,2.1-1.7
		C18.7,35.2,18.7,34.9,18.7,34.6z"/>
	<path fill="#4D4D4D" d="M22.1,13.8c-0.9,0-1.7,0-2.5,0c-0.9,0-0.9-0.4-0.7-1c0.3-1,1.1-1.6,2-2c1.1-0.5,2.3-0.6,3.5-0.6
		c1.1,0,2.3-0.1,3.4-0.5c0.7-0.3,1.3-0.6,1.6-1.3C29.4,8,29.6,8,29.9,8c0.4,0.1,0.3,0.4,0.3,0.7c-0.2,2.6-2.2,4.7-4.9,5
		C24.3,13.8,23.2,13.7,22.1,13.8C22.1,13.7,22.1,13.8,22.1,13.8z"/>
</g>
</svg>
