<?xml version="1.0" encoding="utf-8"?>
<!-- Generator: Adobe Illustrator 18.1.1, SVG Export Plug-In . SVG Version: 6.00 Build 0)  -->
<!DOCTYPE svg PUBLIC "-//W3C//DTD SVG 1.1//EN" "http://www.w3.org/Graphics/SVG/1.1/DTD/svg11.dtd">
<svg version="1.1" id="Layer_1" xmlns="http://www.w3.org/2000/svg" xmlns:xlink="http://www.w3.org/1999/xlink" x="0px" y="0px"
	 viewBox="0 0 95 180.7" enable-background="new 0 0 95 180.7" xml:space="preserve">
<polygon fill="#3BB0C9" points="62.5,162.4 60.5,85.2 16.5,85.2 15,162.4 39,180.3 "/>
<polygon fill="#3BB0C9" points="62,0 75,9.9 75,150.5 62,162.4 "/>
<rect x="15" y="0" fill="#3BB0C9" width="47.2" height="162.4"/>
<g>
	<g>
		<rect x="29.5" y="21.9" fill="#D4DCE6" width="8.9" height="13"/>
		<rect x="40.3" y="21.9" fill="#D4DCE6" width="8.9" height="13"/>
		<rect x="51" y="21.9" fill="#D4DCE6" width="8.9" height="13"/>
		<rect x="18.8" y="21.9" fill="#D4DCE6" width="8.9" height="13"/>
	</g>
	<g>
		<rect x="29.5" y="4.7" fill="#D4DCE6" width="8.9" height="13"/>
		<rect x="40.3" y="4.7" fill="#D4DCE6" width="8.9" height="13"/>
		<rect x="51" y="4.7" fill="#D4DCE6" width="8.9" height="13"/>
		<rect x="18.8" y="4.7" fill="#D4DCE6" width="8.9" height="13"/>
	</g>
	<g>
		<rect x="29.5" y="39" fill="#D4DCE6" width="8.9" height="13"/>
		<rect x="40.3" y="39" fill="#D4DCE6" width="8.9" height="13"/>
		<rect x="51" y="39" fill="#D4DCE6" width="8.9" height="13"/>
		<rect x="18.8" y="39" fill="#D4DCE6" width="8.9" height="13"/>
	</g>
	<g>
		<rect x="29.5" y="56.2" fill="#D4DCE6" width="8.9" height="13"/>
		<rect x="40.3" y="56.2" fill="#D4DCE6" width="8.9" height="13"/>
		<rect x="51" y="56.2" fill="#D4DCE6" width="8.9" height="13"/>
		<rect x="18.8" y="56.2" fill="#D4DCE6" width="8.9" height="13"/>
	</g>
	<g>
		<rect x="29.5" y="73.3" fill="#D4DCE6" width="8.9" height="13"/>
		<rect x="40.3" y="73.3" fill="#D4DCE6" width="8.9" height="13"/>
		<rect x="51" y="73.3" fill="#D4DCE6" width="8.9" height="13"/>
		<rect x="18.8" y="73.3" fill="#D4DCE6" width="8.9" height="13"/>
	</g>
	<g>
		<rect x="29.5" y="90.5" fill="#D4DCE6" width="8.9" height="13"/>
		<rect x="40.3" y="90.5" fill="#D4DCE6" width="8.9" height="13"/>
		<rect x="51" y="90.5" fill="#D4DCE6" width="8.9" height="13"/>
		<rect x="18.8" y="90.5" fill="#D4DCE6" width="8.9" height="13"/>
	</g>
	<g>
		<rect x="29.5" y="107.6" fill="#D4DCE6" width="8.9" height="13"/>
		<rect x="40.3" y="107.6" fill="#D4DCE6" width="8.9" height="13"/>
		<rect x="51" y="107.6" fill="#D4DCE6" width="8.9" height="13"/>
		<rect x="18.8" y="107.6" fill="#D4DCE6" width="8.9" height="13"/>
	</g>
	<g>
		<rect x="29.5" y="124.7" fill="#D4DCE6" width="8.9" height="13"/>
		<rect x="40.3" y="124.7" fill="#D4DCE6" width="8.9" height="13"/>
		<rect x="51" y="124.7" fill="#D4DCE6" width="8.9" height="13"/>
		<rect x="18.8" y="124.7" fill="#D4DCE6" width="8.9" height="13"/>
	</g>
	<g>
		<rect x="29.5" y="141.9" fill="#D4DCE6" width="8.9" height="13"/>
		<rect x="40.3" y="141.9" fill="#D4DCE6" width="8.9" height="13"/>
		<rect x="51" y="141.9" fill="#D4DCE6" width="8.9" height="13"/>
		<rect x="18.8" y="141.9" fill="#D4DCE6" width="8.9" height="13"/>
	</g>
</g>
</svg>
