<?xml version="1.0" encoding="utf-8"?>
<!-- Generator: Adobe Illustrator 18.1.1, SVG Export Plug-In . SVG Version: 6.00 Build 0)  -->
<!DOCTYPE svg PUBLIC "-//W3C//DTD SVG 1.1//EN" "http://www.w3.org/Graphics/SVG/1.1/DTD/svg11.dtd">
<svg version="1.1" id="Layer_1" xmlns="http://www.w3.org/2000/svg" xmlns:xlink="http://www.w3.org/1999/xlink" x="0px" y="0px"
	 viewBox="0 0 95 131.6" enable-background="new 0 0 95 131.6" xml:space="preserve">
<polygon fill="#34498B" stroke="#1B1464" stroke-miterlimit="10" points="64.5,113.2 62.5,35.7 18.5,35.7 17,113.2 41,131.1 "/>
<polygon fill="#34498B" stroke="#1B1464" stroke-miterlimit="10" points="64.5,1 77.5,10.9 77.5,101.5 64.5,113.4 "/>
<rect x="17" y="1" fill="#34498B" stroke="#1B1464" stroke-miterlimit="10" width="47.2" height="112.4"/>
<g>
	<g>
		<rect x="31.5" y="6.3" fill="#738EA8" width="8.9" height="13"/>
		<rect x="42.3" y="6.3" fill="#738EA8" width="8.9" height="13"/>
		<rect x="53" y="6.3" fill="#738EA8" width="8.9" height="13"/>
		<rect x="20.8" y="6.3" fill="#738EA8" width="8.9" height="13"/>
	</g>
	<g>
		<rect x="31.5" y="23.7" fill="#738EA8" width="8.9" height="13"/>
		<rect x="42.3" y="23.7" fill="#738EA8" width="8.9" height="13"/>
		<rect x="53" y="23.7" fill="#738EA8" width="8.9" height="13"/>
		<rect x="20.8" y="23.7" fill="#738EA8" width="8.9" height="13"/>
	</g>
	<g>
		<rect x="31.5" y="41" fill="#738EA8" width="8.9" height="13"/>
		<rect x="42.3" y="41" fill="#738EA8" width="8.9" height="13"/>
		<rect x="53" y="41" fill="#738EA8" width="8.9" height="13"/>
		<rect x="20.8" y="41" fill="#738EA8" width="8.9" height="13"/>
	</g>
	<g>
		<rect x="31.5" y="58.3" fill="#738EA8" width="8.9" height="13"/>
		<rect x="42.3" y="58.3" fill="#738EA8" width="8.9" height="13"/>
		<rect x="53" y="58.3" fill="#738EA8" width="8.9" height="13"/>
		<rect x="20.8" y="58.3" fill="#738EA8" width="8.9" height="13"/>
	</g>
	<g>
		<rect x="31.5" y="75.6" fill="#738EA8" width="8.9" height="13"/>
		<rect x="42.3" y="75.6" fill="#738EA8" width="8.9" height="13"/>
		<rect x="53" y="75.6" fill="#738EA8" width="8.9" height="13"/>
		<rect x="20.8" y="75.6" fill="#738EA8" width="8.9" height="13"/>
	</g>
	<g>
		<rect x="31.5" y="92.9" fill="#738EA8" width="8.9" height="13"/>
		<rect x="42.3" y="92.9" fill="#738EA8" width="8.9" height="13"/>
		<rect x="53" y="92.9" fill="#738EA8" width="8.9" height="13"/>
		<rect x="20.8" y="92.9" fill="#738EA8" width="8.9" height="13"/>
	</g>
</g>
</svg>
