<?xml version="1.0" encoding="utf-8"?>
<!-- Generator: Adobe Illustrator 18.1.1, SVG Export Plug-In . SVG Version: 6.00 Build 0)  -->
<!DOCTYPE svg PUBLIC "-//W3C//DTD SVG 1.1//EN" "http://www.w3.org/Graphics/SVG/1.1/DTD/svg11.dtd">
<svg version="1.1" id="Layer_1" xmlns="http://www.w3.org/2000/svg" xmlns:xlink="http://www.w3.org/1999/xlink" x="0px" y="0px"
	 viewBox="0 0 95 149.7" enable-background="new 0 0 95 149.7" xml:space="preserve">
<polygon fill="#4D4D4D" points="64.5,130.4 62.5,53.2 18.5,53.2 17,130.4 41,148.3 "/>
<polygon fill="#4D4D4D" points="64,0 77,9.9 77,118.5 64,130.4 "/>
<rect x="17" y="0" fill="#4D4D4D" width="47.2" height="130.4"/>
<g>
	<g>
		<rect x="31.5" y="6.1" fill="#7C7C7C" width="8.9" height="13"/>
		<rect x="42.3" y="6.1" fill="#7C7C7C" width="8.9" height="13"/>
		<rect x="53" y="6.1" fill="#7C7C7C" width="8.9" height="13"/>
		<rect x="20.8" y="6.1" fill="#7C7C7C" width="8.9" height="13"/>
	</g>
	<g>
		<rect x="31.5" y="23.4" fill="#7C7C7C" width="8.9" height="13"/>
		<rect x="42.3" y="23.4" fill="#7C7C7C" width="8.9" height="13"/>
		<rect x="53" y="23.4" fill="#7C7C7C" width="8.9" height="13"/>
		<rect x="20.8" y="23.4" fill="#7C7C7C" width="8.9" height="13"/>
	</g>
	<g>
		<rect x="31.5" y="40.7" fill="#7C7C7C" width="8.9" height="13"/>
		<rect x="42.3" y="40.7" fill="#7C7C7C" width="8.9" height="13"/>
		<rect x="53" y="40.7" fill="#7C7C7C" width="8.9" height="13"/>
		<rect x="20.8" y="40.7" fill="#7C7C7C" width="8.9" height="13"/>
	</g>
	<g>
		<rect x="31.5" y="58" fill="#7C7C7C" width="8.9" height="13"/>
		<rect x="42.3" y="58" fill="#7C7C7C" width="8.9" height="13"/>
		<rect x="53" y="58" fill="#7C7C7C" width="8.9" height="13"/>
		<rect x="20.8" y="58" fill="#7C7C7C" width="8.9" height="13"/>
	</g>
	<g>
		<rect x="31.5" y="75.3" fill="#7C7C7C" width="8.9" height="13"/>
		<rect x="42.3" y="75.3" fill="#7C7C7C" width="8.9" height="13"/>
		<rect x="53" y="75.3" fill="#7C7C7C" width="8.9" height="13"/>
		<rect x="20.8" y="75.3" fill="#7C7C7C" width="8.9" height="13"/>
	</g>
	<g>
		<rect x="31.5" y="92.6" fill="#7C7C7C" width="8.9" height="13"/>
		<rect x="42.3" y="92.6" fill="#7C7C7C" width="8.9" height="13"/>
		<rect x="53" y="92.6" fill="#7C7C7C" width="8.9" height="13"/>
		<rect x="20.8" y="92.6" fill="#7C7C7C" width="8.9" height="13"/>
	</g>
	<g>
		<rect x="31.5" y="109.9" fill="#7C7C7C" width="8.9" height="13"/>
		<rect x="42.3" y="109.9" fill="#7C7C7C" width="8.9" height="13"/>
		<rect x="53" y="109.9" fill="#7C7C7C" width="8.9" height="13"/>
		<rect x="20.8" y="109.9" fill="#7C7C7C" width="8.9" height="13"/>
	</g>
</g>
</svg>
